<?xml version="1.0" encoding="UTF-8" standalone="no"?>
<svg xmlns="http://www.w3.org/2000/svg" width="48" height="48" viewBox="0 0 48 48" fill="none">
  <rect width="48" height="48" rx="8" fill="#3498db"/>
  <path d="M24 12C17.373 12 12 17.373 12 24C12 30.627 17.373 36 24 36C30.627 36 36 30.627 36 24C36 17.373 30.627 12 24 12ZM24 16C28.418 16 32 19.582 32 24C32 28.418 28.418 32 24 32C19.582 32 16 28.418 16 24C16 19.582 19.582 16 24 16Z" fill="white"/>
  <path d="M23 20V28L29 24L23 20Z" fill="white"/>
</svg> 